<svg width="479" height="160" viewBox="0 0 479 160" fill="none" xmlns="http://www.w3.org/2000/svg">
<rect width="479" height="160" fill="#292521"/>
<path d="M180.945 68.14C181.089 68.248 181.125 68.464 181.017 68.608C178.569 71.812 174.789 73.72 170.793 73.72C163.665 73.72 157.869 67.78 157.869 60.472C157.869 53.164 163.665 47.224 170.793 47.224C172.917 47.224 174.897 47.692 176.769 48.7C178.353 49.528 179.757 50.716 180.909 52.156C181.017 52.3 180.981 52.48 180.837 52.588L176.553 55.72C176.409 55.828 176.229 55.828 176.121 55.684C174.789 54.1 172.881 53.236 170.793 53.236C166.905 53.236 163.701 56.476 163.701 60.472C163.701 64.468 166.905 67.708 170.793 67.708C172.917 67.708 174.933 66.736 176.265 65.08C176.373 64.936 176.553 64.936 176.697 65.008L180.945 68.14ZM198.677 53.92C198.821 53.92 198.965 54.064 198.965 54.244V72.712C198.965 72.892 198.821 73 198.677 73H193.313C193.169 73 193.025 72.892 193.025 72.712V72.208C193.025 72.064 192.881 71.992 192.773 72.064C191.441 73 190.145 73.324 188.957 73.324C186.293 73.324 184.277 71.74 184.277 71.704C184.097 71.596 183.953 71.452 183.845 71.344C181.901 69.364 181.577 67.78 181.577 64.972V54.244C181.577 54.064 181.685 53.92 181.865 53.92H187.553C187.733 53.92 187.877 54.064 187.877 54.244V64.684C187.877 65.404 187.913 66.196 188.201 66.844C188.345 67.132 188.525 67.348 188.741 67.528C189.101 67.816 189.533 67.96 190.145 67.96C191.225 67.96 192.089 67.564 192.377 66.952C192.665 66.304 192.665 65.404 192.665 64.684V54.244C192.665 54.064 192.809 53.92 192.989 53.92H198.677ZM206.612 47.908C206.756 47.908 206.9 48.052 206.9 48.232V72.712C206.9 72.892 206.756 73 206.612 73H200.96C200.78 73 200.672 72.892 200.672 72.712V48.232C200.672 48.052 200.78 47.908 200.96 47.908H206.612ZM218.986 68.068C219.166 68.068 219.31 68.212 219.274 68.392L218.59 72.928C218.59 73.072 218.446 73.18 218.302 73.18C217.654 73.216 215.926 73.324 215.386 73.324C215.35 73.324 215.314 73.324 215.278 73.324C212.038 73.144 210.31 71.488 210.31 68.5V59.356C210.31 59.176 210.202 59.032 210.022 59.032H208.042C207.862 59.032 207.754 58.888 207.754 58.744V54.208C207.754 54.064 207.862 53.92 208.042 53.92H210.022C210.202 53.92 210.31 53.776 210.31 53.596V48.376C210.31 48.196 210.454 48.088 210.634 48.088H215.962C216.142 48.088 216.286 48.196 216.286 48.376V53.596C216.286 53.776 216.394 53.92 216.574 53.92H218.554C218.734 53.92 218.842 54.064 218.842 54.208V58.744C218.842 58.888 218.734 59.032 218.554 59.032H216.574C216.394 59.032 216.286 59.176 216.286 59.356C216.25 60.94 216.25 65.62 216.25 65.656V65.8C216.25 66.376 216.214 67.168 216.682 67.636C216.97 67.924 217.366 68.068 217.942 68.068H218.986ZM237.244 53.92C237.388 53.92 237.532 54.064 237.532 54.244V72.712C237.532 72.892 237.388 73 237.244 73H231.88C231.736 73 231.592 72.892 231.592 72.712V72.208C231.592 72.064 231.448 71.992 231.34 72.064C230.008 73 228.712 73.324 227.524 73.324C224.86 73.324 222.844 71.74 222.844 71.704C222.664 71.596 222.52 71.452 222.412 71.344C220.468 69.364 220.144 67.78 220.144 64.972V54.244C220.144 54.064 220.252 53.92 220.432 53.92H226.12C226.3 53.92 226.444 54.064 226.444 54.244V64.684C226.444 65.404 226.48 66.196 226.768 66.844C226.912 67.132 227.092 67.348 227.308 67.528C227.668 67.816 228.1 67.96 228.712 67.96C229.792 67.96 230.656 67.564 230.944 66.952C231.232 66.304 231.232 65.404 231.232 64.684V54.244C231.232 54.064 231.376 53.92 231.556 53.92H237.244ZM249.427 53.92C249.571 53.92 249.715 54.064 249.715 54.244L249.535 58.708C249.535 58.888 249.391 59.032 249.211 58.996C248.671 58.96 247.627 58.888 247.015 59.032C246.331 59.212 245.935 59.752 245.827 60.004C245.539 60.652 245.539 61.228 245.539 61.984V72.712C245.539 72.892 245.395 73 245.215 73H239.527C239.347 73 239.239 72.892 239.239 72.712V54.244C239.239 54.064 239.347 53.92 239.527 53.92H244.855C245.035 53.92 245.179 54.064 245.179 54.244V54.784C245.179 54.892 245.287 54.964 245.395 54.892C246.655 54.1 248.167 53.956 249.427 53.92ZM270.582 53.92C270.726 53.92 270.87 54.064 270.87 54.244V72.712C270.87 72.856 270.726 73 270.582 73H265.218C265.074 73 264.93 72.856 264.93 72.712V72.424C264.93 72.316 264.786 72.244 264.714 72.28C263.166 73.144 261.438 73.612 259.674 73.612C254.094 73.612 249.558 69.112 249.558 63.604C249.558 58.096 254.094 53.632 259.674 53.632C261.438 53.632 263.166 54.064 264.714 54.928C264.786 55 264.93 54.928 264.93 54.82V54.244C264.93 54.064 265.074 53.92 265.218 53.92H270.582ZM260.574 68.212C263.166 68.212 264.93 66.16 264.93 63.604C264.93 61.084 263.166 59.032 260.574 59.032C258.018 59.032 255.93 61.084 255.93 63.604C255.93 66.16 258.018 68.212 260.574 68.212Z" fill="#F5EDE1"/>
<path d="M173.817 80.0388C173.997 80.0388 174.141 80.1828 174.141 80.3268V85.5468C174.141 85.6908 173.997 85.8348 173.817 85.8348H169.353C169.173 85.8348 169.029 85.9788 169.029 86.1588V104.951C169.029 105.131 168.885 105.275 168.741 105.275H162.909C162.765 105.275 162.621 105.131 162.621 104.951V86.1588C162.621 85.9788 162.477 85.8348 162.333 85.8348H157.797C157.617 85.8348 157.509 85.6908 157.509 85.5468V80.3268C157.509 80.1828 157.617 80.0388 157.797 80.0388H173.817ZM184.915 86.1588C185.059 86.1588 185.203 86.3028 185.203 86.4828L185.023 90.9468C185.023 91.1268 184.879 91.2708 184.699 91.2348C184.159 91.1988 183.115 91.1268 182.503 91.2708C181.819 91.4508 181.423 91.9908 181.315 92.2428C181.027 92.8908 181.027 93.4668 181.027 94.2228V104.951C181.027 105.131 180.883 105.239 180.703 105.239H175.015C174.835 105.239 174.727 105.131 174.727 104.951V86.4828C174.727 86.3028 174.835 86.1588 175.015 86.1588H180.343C180.523 86.1588 180.667 86.3028 180.667 86.4828V87.0228C180.667 87.1308 180.775 87.2028 180.883 87.1308C182.143 86.3388 183.655 86.1948 184.915 86.1588ZM206.071 86.1588C206.215 86.1588 206.359 86.3028 206.359 86.4828V104.951C206.359 105.095 206.215 105.239 206.071 105.239H200.707C200.563 105.239 200.419 105.095 200.419 104.951V104.663C200.419 104.555 200.275 104.483 200.203 104.519C198.655 105.383 196.927 105.851 195.163 105.851C189.583 105.851 185.047 101.351 185.047 95.8428C185.047 90.3348 189.583 85.8708 195.163 85.8708C196.927 85.8708 198.655 86.3028 200.203 87.1668C200.275 87.2388 200.419 87.1668 200.419 87.0588V86.4828C200.419 86.3028 200.563 86.1588 200.707 86.1588H206.071ZM196.063 100.451C198.655 100.451 200.419 98.3988 200.419 95.8428C200.419 93.3228 198.655 91.2708 196.063 91.2708C193.507 91.2708 191.419 93.3228 191.419 95.8428C191.419 98.3988 193.507 100.451 196.063 100.451ZM223.175 87.8508C225.119 89.8308 225.443 91.4148 225.443 94.2228V104.951C225.443 105.131 225.299 105.239 225.155 105.239H219.467C219.287 105.239 219.143 105.131 219.143 104.951V94.5108C219.143 93.7908 219.107 92.9988 218.819 92.3508C218.675 92.0628 218.495 91.8468 218.279 91.6668C217.919 91.3788 217.451 91.2348 216.875 91.2348C215.759 91.2348 214.931 91.6308 214.643 92.2428C214.355 92.8908 214.355 93.7908 214.355 94.5108V104.951C214.355 105.131 214.211 105.239 214.031 105.239H208.343C208.163 105.239 208.055 105.131 208.055 104.951V86.4828C208.055 86.3028 208.163 86.1588 208.343 86.1588H213.671C213.851 86.1588 213.995 86.3028 213.995 86.4828V86.9868C213.995 87.1308 214.103 87.2028 214.211 87.1308C218.531 84.1428 222.707 87.4548 222.743 87.4908C222.887 87.5988 223.031 87.7428 223.175 87.8508ZM237.698 94.3308C238.922 94.9068 241.73 96.5628 241.55 99.5508C241.514 100.235 241.334 100.955 241.046 101.675C239.894 104.123 237.266 105.563 233.99 105.563C233.522 105.563 233.054 105.527 232.586 105.491C231.11 105.311 229.85 104.915 228.77 104.303C227.654 103.547 226.826 102.503 226.25 101.207C226.178 101.027 226.286 100.811 226.466 100.775L231.686 99.6588C231.83 99.6228 231.938 99.6948 232.01 99.8028C232.37 100.343 233.018 100.595 233.342 100.631C234.134 100.739 234.566 100.523 234.782 100.343C234.962 100.127 235.07 99.8388 235.034 99.5508C234.962 98.9028 234.566 98.5788 232.55 97.6428L232.514 97.6068C232.118 97.4268 231.614 97.1748 231.038 96.9228C230.642 96.7428 230.282 96.5628 229.922 96.3828L229.886 96.3468C229.85 96.3108 229.814 96.3108 229.742 96.2748C227.942 95.2308 226.862 93.9708 226.61 92.4948C226.214 90.4068 227.546 88.6428 227.834 88.3188C228.23 87.8508 228.698 87.4548 229.238 87.1308C230.822 86.1228 232.874 85.6908 234.998 85.9428C236.258 86.0868 237.41 86.4468 238.418 86.9508C238.922 87.2028 239.354 87.5268 239.75 87.8508C240.038 88.1028 240.866 88.9308 241.154 90.2268C241.19 90.4068 241.082 90.5508 240.902 90.5868L235.754 91.6308C235.61 91.6668 235.466 91.5588 235.43 91.4508C235.286 91.0908 234.962 90.7308 234.278 90.6228C233.81 90.5868 233.414 90.7308 233.162 91.0188C232.946 91.2348 232.874 91.4868 232.946 91.7028C233.054 92.0628 233.378 92.6028 235.322 93.3948C235.682 93.5388 236.042 93.6828 236.402 93.8268C236.834 93.9708 237.266 94.1508 237.698 94.3308ZM253.845 85.8708C259.425 85.8708 263.961 90.3708 263.961 95.8788C263.961 101.387 259.425 105.851 253.845 105.851C252.045 105.851 250.317 105.419 248.805 104.519C248.697 104.483 248.589 104.555 248.589 104.663V111.251C248.589 111.431 248.445 111.575 248.265 111.575H242.937C242.757 111.575 242.649 111.431 242.649 111.251V86.4828C242.649 86.3028 242.757 86.1588 242.937 86.1588H248.265C248.445 86.1588 248.589 86.3028 248.589 86.4828V87.0588C248.589 87.1668 248.697 87.2388 248.805 87.2028C250.317 86.3388 252.045 85.8708 253.845 85.8708ZM252.909 100.451C255.465 100.451 257.553 98.3988 257.553 95.8788C257.553 93.3228 255.465 91.2708 252.909 91.2708C250.353 91.2708 248.589 93.3228 248.589 95.8788C248.589 98.3988 250.353 100.451 252.909 100.451ZM285.313 86.1588C285.457 86.1588 285.601 86.3028 285.601 86.4828V104.951C285.601 105.095 285.457 105.239 285.313 105.239H279.949C279.805 105.239 279.661 105.095 279.661 104.951V104.663C279.661 104.555 279.517 104.483 279.445 104.519C277.897 105.383 276.169 105.851 274.405 105.851C268.825 105.851 264.289 101.351 264.289 95.8428C264.289 90.3348 268.825 85.8708 274.405 85.8708C276.169 85.8708 277.897 86.3028 279.445 87.1668C279.517 87.2388 279.661 87.1668 279.661 87.0588V86.4828C279.661 86.3028 279.805 86.1588 279.949 86.1588H285.313ZM275.305 100.451C277.897 100.451 279.661 98.3988 279.661 95.8428C279.661 93.3228 277.897 91.2708 275.305 91.2708C272.749 91.2708 270.661 93.3228 270.661 95.8428C270.661 98.3988 272.749 100.451 275.305 100.451ZM297.485 86.1588C297.629 86.1588 297.773 86.3028 297.773 86.4828L297.593 90.9468C297.593 91.1268 297.449 91.2708 297.269 91.2348C296.729 91.1988 295.685 91.1268 295.073 91.2708C294.389 91.4508 293.993 91.9908 293.885 92.2428C293.597 92.8908 293.597 93.4668 293.597 94.2228V104.951C293.597 105.131 293.453 105.239 293.273 105.239H287.585C287.405 105.239 287.297 105.131 287.297 104.951V86.4828C287.297 86.3028 287.405 86.1588 287.585 86.1588H292.913C293.093 86.1588 293.237 86.3028 293.237 86.4828V87.0228C293.237 87.1308 293.345 87.2028 293.453 87.1308C294.713 86.3388 296.225 86.1948 297.485 86.1588ZM317.453 93.0348C317.741 93.9708 317.849 94.9068 317.849 95.8788C317.849 96.4188 317.813 97.0668 317.705 97.6428C317.669 97.7868 317.561 97.8948 317.381 97.8948H304.025C303.809 97.8948 303.665 98.1468 303.773 98.3628C304.601 99.7308 306.077 100.631 307.697 100.631C309.065 100.631 310.361 100.019 311.261 98.8308C311.333 98.7588 311.441 98.6868 311.585 98.7228L316.697 99.6228C316.877 99.6588 316.985 99.8748 316.913 100.055C316.805 100.307 316.661 100.595 316.553 100.739L316.481 100.883C316.409 101.027 316.337 101.171 316.229 101.315C316.121 101.495 316.013 101.639 315.905 101.783L315.833 101.891C315.797 101.927 315.761 101.963 315.725 101.999L315.653 102.071C315.581 102.179 315.509 102.251 315.437 102.323L315.401 102.395C315.257 102.539 315.149 102.647 315.041 102.791L314.969 102.863C314.897 102.935 314.825 103.007 314.717 103.079V103.115C314.609 103.187 314.537 103.295 314.429 103.367L314.321 103.439L314.213 103.331L314.321 103.475C314.177 103.583 314.033 103.691 313.889 103.799L313.781 103.871C313.637 103.979 313.457 104.087 313.313 104.195L313.241 104.231C313.061 104.375 312.881 104.483 312.665 104.591L312.629 104.627C312.593 104.627 312.521 104.663 312.485 104.699H312.449C312.377 104.735 312.305 104.771 312.197 104.843H312.161C311.981 104.951 311.801 105.023 311.657 105.095H311.621C311.477 105.131 311.405 105.167 311.297 105.203L311.153 105.275C311.045 105.311 310.901 105.347 310.793 105.383H310.757C310.613 105.455 310.469 105.491 310.325 105.527L310.217 105.563C309.929 105.635 309.641 105.671 309.317 105.743H309.209C308.921 105.779 308.597 105.815 308.309 105.851H308.201C308.021 105.851 307.877 105.851 307.733 105.851C307.589 105.851 307.445 105.851 307.265 105.851C307.229 105.851 307.193 105.851 307.157 105.851H307.121C307.013 105.815 306.905 105.815 306.797 105.815H306.761C306.725 105.815 306.689 105.815 306.653 105.779C306.473 105.779 306.329 105.779 306.185 105.743H306.113C305.969 105.707 305.861 105.671 305.753 105.671L305.609 105.635C305.501 105.599 305.393 105.599 305.285 105.563H305.249C305.213 105.527 305.177 105.527 305.141 105.527C304.997 105.491 304.853 105.455 304.709 105.419C304.565 105.347 304.421 105.311 304.277 105.275C304.277 105.239 304.241 105.239 304.205 105.239L304.169 105.203C304.061 105.167 303.953 105.131 303.881 105.095H303.845C303.809 105.059 303.773 105.059 303.737 105.059C303.593 104.987 303.485 104.915 303.341 104.879C303.197 104.807 303.089 104.735 302.945 104.663C302.909 104.663 302.873 104.627 302.837 104.627V104.591C302.729 104.555 302.657 104.519 302.549 104.447L302.441 104.375C302.297 104.303 302.189 104.231 302.081 104.159C300.857 103.331 299.813 102.287 299.057 101.027C298.985 100.955 298.949 100.847 298.877 100.739L298.841 100.667C298.805 100.595 298.733 100.487 298.697 100.379L298.661 100.307C298.661 100.271 298.625 100.271 298.625 100.235C298.409 99.8388 298.265 99.4068 298.121 98.9748C298.013 98.7588 297.977 98.5428 297.905 98.3628C297.869 98.2188 297.833 98.0388 297.797 97.8588C297.689 97.3908 297.653 96.8868 297.617 96.3828C297.617 96.2028 297.617 96.0228 297.617 95.8788C297.617 95.6988 297.617 95.5188 297.617 95.3388C297.653 94.4748 297.833 93.5748 298.121 92.7468C298.193 92.4588 298.301 92.2068 298.409 91.9908C298.445 91.8468 298.517 91.7028 298.589 91.5588C298.589 91.5588 298.625 91.5228 298.625 91.4868L298.661 91.4148C298.661 91.3788 298.697 91.3428 298.697 91.3068C298.733 91.2708 298.733 91.2348 298.769 91.2348L298.841 91.0548C298.913 90.9468 298.985 90.8028 299.057 90.6948C299.813 89.4708 300.857 88.3908 302.081 87.5628C302.189 87.4908 302.297 87.4188 302.441 87.3468L302.549 87.2748C302.657 87.2388 302.729 87.1668 302.837 87.1308V87.0948C302.873 87.0948 302.909 87.0588 302.945 87.0588C303.089 86.9868 303.197 86.9148 303.341 86.8428C303.485 86.8068 303.593 86.7348 303.737 86.6628C303.773 86.6628 303.809 86.6628 303.845 86.6268H303.881C303.953 86.5908 304.061 86.5548 304.169 86.5188L304.205 86.4828C304.241 86.4828 304.277 86.4828 304.277 86.4468C304.421 86.4108 304.565 86.3748 304.709 86.3028C304.853 86.2668 304.997 86.2308 305.141 86.1948C305.177 86.1948 305.213 86.1948 305.249 86.1588H305.285C305.393 86.1228 305.501 86.1228 305.609 86.0868H305.681C305.825 86.0508 306.041 86.0148 306.149 85.9788H306.185C306.329 85.9788 306.473 85.9428 306.653 85.9428C306.689 85.9428 306.725 85.9068 306.761 85.9068H306.797C306.905 85.9068 307.013 85.9068 307.121 85.9068H307.157C307.193 85.8708 307.229 85.8708 307.265 85.8708C307.445 85.8708 307.589 85.8708 307.733 85.8708C307.877 85.8708 308.021 85.8708 308.201 85.8708H308.309C308.597 85.9068 308.921 85.9428 309.209 85.9788L309.353 86.0148C309.641 86.0508 309.929 86.0868 310.217 86.1588L310.325 86.1948C310.469 86.2308 310.613 86.3028 310.757 86.3388H310.793C310.901 86.3748 311.045 86.4108 311.153 86.4468C311.189 86.4828 311.225 86.4828 311.261 86.5188C311.405 86.5548 311.477 86.5908 311.585 86.6268H311.657C311.801 86.6988 311.981 86.8068 312.161 86.8788H312.197C312.305 86.9508 312.377 86.9868 312.449 87.0228H312.485L312.413 87.1668L312.485 87.0228C312.521 87.0588 312.593 87.0948 312.629 87.1308C312.809 87.2028 313.061 87.3828 313.241 87.4908H313.277C313.457 87.5988 313.601 87.7068 313.781 87.8508C313.817 87.8868 313.853 87.9228 313.889 87.9228C314.033 88.0308 314.177 88.1388 314.321 88.2828L314.393 88.3188C314.501 88.4268 314.609 88.5348 314.717 88.6068V88.6428C314.825 88.7148 314.897 88.7868 314.969 88.8588L315.041 88.9308C315.149 89.0748 315.257 89.1828 315.365 89.3268L315.293 89.4348L315.401 89.3268L315.437 89.3988C315.509 89.4708 315.581 89.5428 315.653 89.6508L315.725 89.7228C315.797 89.7948 315.869 89.9028 315.941 90.0108C316.013 90.1188 316.085 90.1908 316.121 90.2628L316.229 90.4428C316.265 90.5148 316.337 90.5868 316.373 90.6588L316.553 90.9828C316.949 91.6308 317.237 92.3148 317.453 93.0348ZM311.585 93.6828C311.765 93.6828 311.909 93.5028 311.909 93.3228C311.657 91.9188 310.037 90.8388 307.949 90.8388C306.077 90.8388 304.277 91.9188 304.025 93.3228C303.989 93.5028 304.133 93.6828 304.313 93.6828H311.585ZM333.987 87.8508C335.931 89.8308 336.255 91.4148 336.255 94.2228V104.951C336.255 105.131 336.111 105.239 335.967 105.239H330.279C330.099 105.239 329.955 105.131 329.955 104.951V94.5108C329.955 93.7908 329.919 92.9988 329.631 92.3508C329.487 92.0628 329.307 91.8468 329.091 91.6668C328.731 91.3788 328.263 91.2348 327.687 91.2348C326.571 91.2348 325.743 91.6308 325.455 92.2428C325.167 92.8908 325.167 93.7908 325.167 94.5108V104.951C325.167 105.131 325.023 105.239 324.843 105.239H319.155C318.975 105.239 318.867 105.131 318.867 104.951V86.4828C318.867 86.3028 318.975 86.1588 319.155 86.1588H324.483C324.663 86.1588 324.807 86.3028 324.807 86.4828V86.9868C324.807 87.1308 324.915 87.2028 325.023 87.1308C329.343 84.1428 333.519 87.4548 333.555 87.4908C333.699 87.5988 333.843 87.7428 333.987 87.8508ZM348.15 100.307C348.33 100.307 348.474 100.451 348.438 100.631L347.754 105.167C347.754 105.311 347.61 105.419 347.466 105.419C346.818 105.455 345.09 105.563 344.55 105.563C344.514 105.563 344.478 105.563 344.442 105.563C341.202 105.383 339.474 103.727 339.474 100.739V91.5948C339.474 91.4148 339.366 91.2708 339.186 91.2708H337.206C337.026 91.2708 336.918 91.1268 336.918 90.9828V86.4468C336.918 86.3028 337.026 86.1588 337.206 86.1588H339.186C339.366 86.1588 339.474 86.0148 339.474 85.8348V80.6148C339.474 80.4348 339.618 80.3268 339.798 80.3268H345.126C345.306 80.3268 345.45 80.4348 345.45 80.6148V85.8348C345.45 86.0148 345.558 86.1588 345.738 86.1588H347.718C347.898 86.1588 348.006 86.3028 348.006 86.4468V90.9828C348.006 91.1268 347.898 91.2708 347.718 91.2708H345.738C345.558 91.2708 345.45 91.4148 345.45 91.5948C345.414 93.1788 345.414 97.8588 345.414 97.8948V98.0388C345.414 98.6148 345.378 99.4068 345.846 99.8748C346.134 100.163 346.53 100.307 347.106 100.307H348.15ZM368.394 93.0348C368.682 93.9708 368.79 94.9068 368.79 95.8788C368.79 96.4188 368.754 97.0668 368.646 97.6428C368.61 97.7868 368.502 97.8948 368.322 97.8948H354.966C354.75 97.8948 354.606 98.1468 354.714 98.3628C355.542 99.7308 357.018 100.631 358.638 100.631C360.006 100.631 361.302 100.019 362.202 98.8308C362.274 98.7588 362.382 98.6868 362.526 98.7228L367.638 99.6228C367.818 99.6588 367.926 99.8748 367.854 100.055C367.746 100.307 367.602 100.595 367.494 100.739L367.422 100.883C367.35 101.027 367.278 101.171 367.17 101.315C367.062 101.495 366.954 101.639 366.846 101.783L366.774 101.891C366.738 101.927 366.702 101.963 366.666 101.999L366.594 102.071C366.522 102.179 366.45 102.251 366.378 102.323L366.342 102.395C366.198 102.539 366.09 102.647 365.982 102.791L365.91 102.863C365.838 102.935 365.766 103.007 365.658 103.079V103.115C365.55 103.187 365.478 103.295 365.37 103.367L365.262 103.439L365.154 103.331L365.262 103.475C365.118 103.583 364.974 103.691 364.83 103.799L364.722 103.871C364.578 103.979 364.398 104.087 364.254 104.195L364.182 104.231C364.002 104.375 363.822 104.483 363.606 104.591L363.57 104.627C363.534 104.627 363.462 104.663 363.426 104.699H363.39C363.318 104.735 363.246 104.771 363.138 104.843H363.102C362.922 104.951 362.742 105.023 362.598 105.095H362.562C362.418 105.131 362.346 105.167 362.238 105.203L362.094 105.275C361.986 105.311 361.842 105.347 361.734 105.383H361.698C361.554 105.455 361.41 105.491 361.266 105.527L361.158 105.563C360.87 105.635 360.582 105.671 360.258 105.743H360.15C359.862 105.779 359.538 105.815 359.25 105.851H359.142C358.962 105.851 358.818 105.851 358.674 105.851C358.53 105.851 358.386 105.851 358.206 105.851C358.17 105.851 358.134 105.851 358.098 105.851H358.062C357.954 105.815 357.846 105.815 357.738 105.815H357.702C357.666 105.815 357.63 105.815 357.594 105.779C357.414 105.779 357.27 105.779 357.126 105.743H357.054C356.91 105.707 356.802 105.671 356.694 105.671L356.55 105.635C356.442 105.599 356.334 105.599 356.226 105.563H356.19C356.154 105.527 356.118 105.527 356.082 105.527C355.938 105.491 355.794 105.455 355.65 105.419C355.506 105.347 355.362 105.311 355.218 105.275C355.218 105.239 355.182 105.239 355.146 105.239L355.11 105.203C355.002 105.167 354.894 105.131 354.822 105.095H354.786C354.75 105.059 354.714 105.059 354.678 105.059C354.534 104.987 354.426 104.915 354.282 104.879C354.138 104.807 354.03 104.735 353.886 104.663C353.85 104.663 353.814 104.627 353.778 104.627V104.591C353.67 104.555 353.598 104.519 353.49 104.447L353.382 104.375C353.238 104.303 353.13 104.231 353.022 104.159C351.798 103.331 350.754 102.287 349.998 101.027C349.926 100.955 349.89 100.847 349.818 100.739L349.782 100.667C349.746 100.595 349.674 100.487 349.638 100.379L349.602 100.307C349.602 100.271 349.566 100.271 349.566 100.235C349.35 99.8388 349.206 99.4068 349.062 98.9748C348.954 98.7588 348.918 98.5428 348.846 98.3628C348.81 98.2188 348.774 98.0388 348.738 97.8588C348.63 97.3908 348.594 96.8868 348.558 96.3828C348.558 96.2028 348.558 96.0228 348.558 95.8788C348.558 95.6988 348.558 95.5188 348.558 95.3388C348.594 94.4748 348.774 93.5748 349.062 92.7468C349.134 92.4588 349.242 92.2068 349.35 91.9908C349.386 91.8468 349.458 91.7028 349.53 91.5588C349.53 91.5588 349.566 91.5228 349.566 91.4868L349.602 91.4148C349.602 91.3788 349.638 91.3428 349.638 91.3068C349.674 91.2708 349.674 91.2348 349.71 91.2348L349.782 91.0548C349.854 90.9468 349.926 90.8028 349.998 90.6948C350.754 89.4708 351.798 88.3908 353.022 87.5628C353.13 87.4908 353.238 87.4188 353.382 87.3468L353.49 87.2748C353.598 87.2388 353.67 87.1668 353.778 87.1308V87.0948C353.814 87.0948 353.85 87.0588 353.886 87.0588C354.03 86.9868 354.138 86.9148 354.282 86.8428C354.426 86.8068 354.534 86.7348 354.678 86.6628C354.714 86.6628 354.75 86.6628 354.786 86.6268H354.822C354.894 86.5908 355.002 86.5548 355.11 86.5188L355.146 86.4828C355.182 86.4828 355.218 86.4828 355.218 86.4468C355.362 86.4108 355.506 86.3748 355.65 86.3028C355.794 86.2668 355.938 86.2308 356.082 86.1948C356.118 86.1948 356.154 86.1948 356.19 86.1588H356.226C356.334 86.1228 356.442 86.1228 356.55 86.0868H356.622C356.766 86.0508 356.982 86.0148 357.09 85.9788H357.126C357.27 85.9788 357.414 85.9428 357.594 85.9428C357.63 85.9428 357.666 85.9068 357.702 85.9068H357.738C357.846 85.9068 357.954 85.9068 358.062 85.9068H358.098C358.134 85.8708 358.17 85.8708 358.206 85.8708C358.386 85.8708 358.53 85.8708 358.674 85.8708C358.818 85.8708 358.962 85.8708 359.142 85.8708H359.25C359.538 85.9068 359.862 85.9428 360.15 85.9788L360.294 86.0148C360.582 86.0508 360.87 86.0868 361.158 86.1588L361.266 86.1948C361.41 86.2308 361.554 86.3028 361.698 86.3388H361.734C361.842 86.3748 361.986 86.4108 362.094 86.4468C362.13 86.4828 362.166 86.4828 362.202 86.5188C362.346 86.5548 362.418 86.5908 362.526 86.6268H362.598C362.742 86.6988 362.922 86.8068 363.102 86.8788H363.138C363.246 86.9508 363.318 86.9868 363.39 87.0228H363.426L363.354 87.1668L363.426 87.0228C363.462 87.0588 363.534 87.0948 363.57 87.1308C363.75 87.2028 364.002 87.3828 364.182 87.4908H364.218C364.398 87.5988 364.542 87.7068 364.722 87.8508C364.758 87.8868 364.794 87.9228 364.83 87.9228C364.974 88.0308 365.118 88.1388 365.262 88.2828L365.334 88.3188C365.442 88.4268 365.55 88.5348 365.658 88.6068V88.6428C365.766 88.7148 365.838 88.7868 365.91 88.8588L365.982 88.9308C366.09 89.0748 366.198 89.1828 366.306 89.3268L366.234 89.4348L366.342 89.3268L366.378 89.3988C366.45 89.4708 366.522 89.5428 366.594 89.6508L366.666 89.7228C366.738 89.7948 366.81 89.9028 366.882 90.0108C366.954 90.1188 367.026 90.1908 367.062 90.2628L367.17 90.4428C367.206 90.5148 367.278 90.5868 367.314 90.6588L367.494 90.9828C367.89 91.6308 368.178 92.3148 368.394 93.0348ZM362.526 93.6828C362.706 93.6828 362.85 93.5028 362.85 93.3228C362.598 91.9188 360.978 90.8388 358.89 90.8388C357.018 90.8388 355.218 91.9188 354.966 93.3228C354.93 93.5028 355.074 93.6828 355.254 93.6828H362.526Z" fill="#F5EDE1"/>
<path d="M119.778 66.0595C119.799 66.0609 119.82 66.0623 119.842 66.0637C121.066 66.1434 122.253 66.3665 123.433 66.7543C123.465 66.7649 123.497 66.7755 123.529 66.7865C125.147 67.3303 126.624 68.1928 127.932 69.2866C127.948 69.3002 127.964 69.3138 127.981 69.3278C128.449 69.7184 128.915 70.1341 129.311 70.5966C129.373 70.6678 129.436 70.7366 129.5 70.806C129.66 70.9828 129.805 71.1685 129.95 71.3591C129.987 71.4069 130.025 71.4541 130.063 71.5013C130.481 72.0263 130.846 72.6044 131.171 73.1919C131.206 73.2544 131.242 73.3163 131.278 73.3782C132.431 75.3439 132.943 77.722 132.933 80.0033C132.933 80.0608 132.933 80.0608 132.933 80.1196C132.928 82.3446 132.415 84.6196 131.328 86.5572C131.286 86.6341 131.244 86.7116 131.203 86.7887C131.172 86.8441 131.142 86.8994 131.111 86.9547C131.092 86.9881 131.074 87.0219 131.055 87.0563C130.901 87.3344 130.73 87.6 130.549 87.8594C130.537 87.8773 130.525 87.895 130.512 87.9135C130.228 88.3228 129.928 88.7291 129.588 89.0947C129.519 89.1713 129.455 89.2504 129.391 89.331C129.241 89.5157 129.079 89.6841 128.907 89.8497C128.879 89.8776 128.851 89.9057 128.822 89.9344C128.68 90.0757 128.536 90.2126 128.385 90.3438C128.318 90.4016 128.253 90.4619 128.188 90.5223C127.42 91.216 127.42 91.216 126.961 91.2098C126.77 91.1928 126.642 91.1141 126.511 90.9766C126.38 90.8076 126.323 90.6329 126.333 90.4172C126.398 89.9922 126.811 89.7391 127.123 89.4891C127.233 89.3985 127.339 89.3032 127.445 89.2072C127.519 89.1397 127.595 89.0738 127.671 89.0078C127.752 88.936 127.825 88.8641 127.893 88.7794C127.914 88.7536 127.935 88.7278 127.957 88.7013H128.02C128.028 88.6829 128.036 88.6647 128.044 88.6457C128.085 88.5697 128.13 88.5238 128.193 88.4647C128.32 88.3416 128.43 88.2103 128.54 88.0741C128.612 87.9844 128.686 87.8972 128.761 87.8097C129.224 87.2566 129.611 86.6441 129.954 86.0097C129.985 85.954 130.016 85.8987 130.047 85.8437C131.021 84.0812 131.461 82.0312 131.458 80.0311C131.458 79.9977 131.458 79.9639 131.458 79.9296C131.457 79.4546 131.453 78.9827 131.39 78.5108C131.385 78.4742 131.381 78.438 131.376 78.4005C131.253 77.4755 131.042 76.5848 130.726 75.7067C130.704 75.6348 130.704 75.6348 130.704 75.541C130.105 75.7342 129.505 75.9286 128.909 76.1348C128.519 76.2695 128.129 76.3989 127.738 76.5254C127.298 76.667 126.864 76.8129 126.427 76.9629C126.189 77.0455 125.952 77.1258 125.712 77.2039C125.66 77.2208 125.609 77.2376 125.557 77.2545C125.459 77.2867 125.361 77.3183 125.263 77.3495C125.04 77.422 124.838 77.4955 124.648 77.6339C124.621 77.6513 124.594 77.6686 124.566 77.6867C124.359 77.8886 124.235 78.1586 124.21 78.4461C124.216 78.6124 124.235 78.7774 124.256 78.943C124.334 79.6055 124.16 80.2993 123.747 80.8305C123.704 80.8808 123.66 80.9302 123.616 80.979C123.592 81.0057 123.568 81.0324 123.543 81.0599C123.009 81.6224 122.257 81.8005 121.535 82.013C121.402 82.0524 121.268 82.0924 121.136 82.1321C121.032 82.1631 120.928 82.194 120.824 82.2246C120.162 82.3971 120.162 82.3971 119.668 82.8465C119.493 83.1777 119.41 83.509 119.5 83.8746C119.573 84.0915 119.699 84.2778 119.838 84.459C120.281 85.059 120.418 85.7559 120.331 86.4903C120.248 87.0028 119.991 87.4653 119.653 87.856C119.636 87.8766 119.618 87.8972 119.599 87.9185C119.474 88.0522 119.328 88.1591 119.181 88.2685C118.725 88.6153 118.416 89.0247 118.31 89.606C118.239 90.3404 118.518 90.8779 118.884 91.4966C118.982 91.6616 119.077 91.8279 119.167 91.9967C119.185 92.0285 119.202 92.0604 119.22 92.0929C119.253 92.1535 119.285 92.2145 119.316 92.2763C119.36 92.3567 119.399 92.4198 119.465 92.4826C119.573 92.5114 119.668 92.4981 119.778 92.4826C119.827 92.4799 119.876 92.4776 119.926 92.4755C121.259 92.3796 122.583 92.063 123.828 91.5411C124.087 91.4345 124.331 91.378 124.6 91.4839C124.794 91.5792 124.889 91.7039 124.977 91.8964C125.042 92.0889 125.038 92.2777 124.953 92.4621C124.752 92.8371 124.229 92.9808 123.854 93.1183C123.825 93.1291 123.825 93.1291 123.794 93.1401C122.742 93.5214 121.653 93.7589 120.547 93.887C120.516 93.8907 120.486 93.8944 120.454 93.8982C119.061 94.0586 117.641 93.9561 116.27 93.6995C116.24 93.694 116.209 93.6884 116.178 93.6827C113.68 93.2233 111.37 91.9296 109.496 90.2139C109.447 90.1686 109.398 90.1239 109.348 90.0795C109.323 90.0568 109.323 90.0568 109.298 90.0336C109.251 89.9917 109.205 89.9501 109.159 89.9083C109.071 89.8236 108.996 89.7333 108.919 89.6392C108.867 89.5867 108.815 89.5345 108.762 89.483C108.509 89.222 108.275 88.9517 108.054 88.6611C108.013 88.6073 107.971 88.5539 107.93 88.5004C107.774 88.3007 107.624 88.0973 107.483 87.8879C107.472 87.8709 107.46 87.8539 107.448 87.8364C107.251 87.5473 107.067 87.252 106.889 86.9488C106.878 86.9298 106.867 86.9107 106.855 86.8913C106.528 86.332 106.256 85.7382 106.016 85.1351L105.982 85.0526C105.386 83.565 105.095 81.9525 105.049 80.365C105.048 80.3275 105.048 80.3275 105.046 80.289C105.027 79.5047 105.085 78.7046 105.205 77.9265L105.22 77.8259C105.426 76.5227 105.804 75.279 106.36 74.0758C106.373 74.0464 106.387 74.0171 106.401 73.9867C106.708 73.3336 107.088 72.7117 107.484 72.1086C107.497 72.0901 107.509 72.0717 107.521 72.0526C107.683 71.8092 107.843 71.612 108.139 71.5464C108.349 71.5254 108.517 71.5646 108.701 71.6714C108.857 71.8089 108.966 71.9542 108.994 72.1651C109.003 72.5558 108.807 72.7995 108.597 73.112C108.446 73.3358 108.306 73.5652 108.17 73.7996C108.158 73.8188 108.147 73.838 108.135 73.8577C107.564 74.8358 107.158 75.9077 106.88 77.014C106.873 77.0423 106.866 77.0705 106.858 77.0999C106.794 77.3659 106.748 77.6343 106.703 77.9062C106.927 77.9269 107.152 77.9474 107.374 77.9674C107.478 77.9767 107.582 77.9862 107.686 77.9958C108.092 78.0333 108.495 78.0696 108.901 78.0705C108.928 78.0706 108.955 78.0708 108.983 78.0709C109.43 78.0666 109.842 77.875 110.163 77.5709C110.427 77.2837 110.554 76.9302 110.657 76.5584C110.901 75.6802 111.431 74.9833 112.227 74.5302L112.315 74.4783C112.671 74.2833 113.062 74.2071 113.458 74.1408C113.482 74.1369 113.505 74.1329 113.53 74.1288C113.648 74.109 113.767 74.0897 113.886 74.0716C114.391 73.9922 114.869 73.8685 115.222 73.4685C115.239 73.449 115.257 73.4294 115.274 73.4094C115.483 73.161 115.59 72.8969 115.643 72.5781C115.649 72.5422 115.649 72.5422 115.655 72.5056C115.713 72.1306 115.742 71.7525 115.776 71.3775C115.786 71.265 115.797 71.1528 115.807 71.04C115.824 70.8519 115.841 70.665 115.858 70.4744C115.878 70.2575 115.897 70.04 115.917 69.8243C115.937 69.6143 115.956 69.4056 115.975 69.1931C115.983 69.1043 115.991 69.0156 115.999 68.9265C116.011 68.8025 116.022 68.6787 116.033 68.5546C116.036 68.5184 116.04 68.4818 116.043 68.4443C116.06 68.2534 116.069 68.0662 116.066 67.8756C114.302 68.3349 112.663 69.0881 111.226 70.2475C110.955 70.4681 110.714 70.66 110.349 70.6256C110.135 70.5775 109.959 70.4653 109.84 70.2819C109.74 70.0831 109.725 69.8975 109.772 69.6818C110.09 68.7693 111.889 67.9506 112.694 67.5599C112.734 67.5407 112.774 67.5215 112.815 67.5024C112.885 67.4687 112.954 67.434 113.023 67.3993C114.659 66.5868 116.458 66.2024 118.269 66.0899C118.29 66.0886 118.312 66.0872 118.334 66.0858C118.821 66.0563 119.305 66.058 119.792 66.0899L119.778 66.0595ZM118.123 67.5002C118.1 67.5015 118.077 67.5029 118.053 67.5043C117.986 67.5083 117.92 67.5124 117.854 67.5167C117.815 67.5191 117.777 67.5216 117.737 67.5241C117.64 67.5299 117.64 67.5299 117.548 67.5647C117.545 67.5947 117.545 67.5947 117.542 67.6253C117.498 68.1191 117.453 68.6129 117.408 69.1035C117.386 69.3419 117.364 69.5816 117.343 69.8191C117.291 70.3941 117.238 70.9692 117.184 71.5442C117.177 71.616 117.17 71.6879 117.164 71.7601C117.147 71.9335 117.131 72.107 117.114 72.2789C117.109 72.3264 117.104 72.3739 117.1 72.4214C117.058 72.8651 116.958 73.2808 116.766 73.687C116.746 73.7286 116.746 73.7286 116.726 73.7714C116.38 74.4558 115.771 74.9745 115.056 75.2402C114.706 75.3539 114.341 75.4142 113.979 75.477C113.94 75.4838 113.902 75.4905 113.862 75.4974C113.787 75.5101 113.712 75.5226 113.637 75.5345C113.113 75.6233 112.638 75.8327 112.314 76.2721C112.149 76.5221 112.061 76.7846 111.98 77.0721C111.73 77.9283 111.28 78.619 110.493 79.0659C110.459 79.0858 110.424 79.1059 110.388 79.1262C109.495 79.6043 108.502 79.4824 107.531 79.3977C107.353 79.3822 107.175 79.3671 106.997 79.3521C106.936 79.3469 106.874 79.3414 106.812 79.336C106.775 79.3328 106.739 79.3297 106.701 79.3265C106.652 79.3222 106.652 79.3222 106.602 79.3178C106.578 79.3171 106.553 79.3164 106.529 79.3157C106.48 79.3644 106.493 79.4122 106.493 79.48C106.492 79.5085 106.492 79.5369 106.492 79.5663C106.492 79.5975 106.491 79.6288 106.491 79.661C106.491 79.6932 106.491 79.7257 106.491 79.7588C106.49 79.8644 106.49 79.9697 106.49 80.0744C106.49 80.1104 106.49 80.146 106.49 80.1829C106.49 80.7235 106.506 81.2485 106.591 81.7829C106.6 81.8376 106.6 81.8376 106.608 81.8932C106.683 82.362 106.776 82.8245 106.903 83.2839C106.91 83.3084 106.917 83.3329 106.924 83.3582C107.184 84.2895 107.536 85.202 108.026 86.0333C108.058 86.0923 108.09 86.1517 108.122 86.2111C108.618 87.1205 109.271 87.9799 110.011 88.7049C110.057 88.7521 110.057 88.7521 110.117 88.8302C110.192 88.9218 110.277 88.9936 110.367 89.0705C110.426 89.1224 110.48 89.1761 110.535 89.2327C110.662 89.3615 110.802 89.473 110.944 89.5858C110.997 89.6293 111.05 89.6733 111.103 89.7177C112.108 90.5584 113.272 91.2146 114.506 91.6896C114.534 91.7008 114.563 91.7121 114.593 91.7237C115.557 92.0987 116.706 92.4643 117.746 92.4393C117.706 92.3337 117.66 92.2371 117.603 92.1396C117.588 92.1128 117.572 92.0859 117.556 92.0584C117.54 92.0301 117.523 92.0018 117.506 91.9728C117.128 91.3134 116.86 90.704 116.863 89.9321C116.863 89.8949 116.863 89.8577 116.863 89.8193C116.867 89.5458 116.89 89.2974 116.966 89.0349C116.977 88.9974 116.987 88.9599 116.998 88.9215C117.227 88.1589 117.703 87.5246 118.349 87.0683C118.634 86.853 118.846 86.5808 118.902 86.2245C118.933 85.8026 118.816 85.5214 118.587 85.1745C118.147 84.5089 117.915 83.8026 118.078 82.9995C118.227 82.3182 118.581 81.7588 119.149 81.3494C119.171 81.3331 119.194 81.3169 119.217 81.3001C119.776 80.9313 120.503 80.8032 121.137 80.6188C121.264 80.5816 121.391 80.5441 121.518 80.5063C121.567 80.4918 121.616 80.4774 121.665 80.4632C122.083 80.3419 122.449 80.2054 122.686 79.8163C122.849 79.4913 122.84 79.1632 122.788 78.8132C122.701 78.1756 122.894 77.5069 123.269 76.985C123.741 76.3787 124.346 76.1256 125.055 75.8912C125.112 75.8721 125.168 75.8531 125.225 75.834C125.612 75.7037 125.999 75.5775 126.386 75.4528C126.798 75.3206 127.204 75.1821 127.613 75.0403C128.025 74.8981 128.44 74.7606 128.859 74.6278C129.258 74.4996 129.652 74.3659 130.048 74.2246C130.03 74.1137 130.002 74.0278 129.948 73.9296C129.927 73.8909 129.927 73.8909 129.905 73.8515C129.882 73.8109 129.882 73.8109 129.859 73.7696C129.844 73.7416 129.828 73.7134 129.812 73.6846C129.692 73.4718 129.565 73.269 129.425 73.069C129.395 73.0268 129.366 72.9846 129.337 72.9424C129.025 72.4955 128.694 72.0705 128.331 71.6612C128.317 71.6451 128.303 71.629 128.288 71.6124C127.948 71.228 127.592 70.8499 127.189 70.5311C127.118 70.4746 127.051 70.4149 126.984 70.353C125.367 68.8999 123.144 67.9686 121.021 67.628C120.994 67.6236 120.968 67.6192 120.941 67.6147C120.013 67.4631 119.067 67.4459 118.131 67.5009L118.123 67.5002Z" fill="#F5EDE1"/>
<path d="M137.762 68.9424C139.129 70.1268 139.794 72.6299 140.266 74.3175C140.272 74.3411 140.279 74.365 140.286 74.3893C140.353 74.6318 140.416 74.8737 140.465 75.1206C140.477 75.1772 140.477 75.1772 140.489 75.235C140.502 75.3047 140.515 75.3744 140.526 75.4447C140.543 75.5328 140.559 75.6053 140.602 75.6847C140.69 75.7425 140.78 75.7575 140.883 75.7784C140.932 75.7954 140.981 75.8134 141.029 75.8325C141.054 75.842 141.078 75.8515 141.104 75.8613C141.585 76.0507 142 76.2801 142.396 76.6145C142.43 76.6426 142.465 76.6704 142.499 76.6976C142.544 76.7342 142.589 76.7723 142.632 76.811V76.8735C142.65 76.8808 142.668 76.8879 142.687 76.8954C143.274 77.2329 143.654 78.2579 143.823 78.8767C143.856 79.0004 143.885 79.1248 143.913 79.2485C143.92 79.2781 143.927 79.3076 143.935 79.3382C144.153 80.3914 143.799 81.5539 143.239 82.4445C142.911 82.9414 142.486 83.3727 141.977 83.6883C141.957 83.7005 141.938 83.7127 141.917 83.7255C141.002 84.2818 141.002 84.2818 140.572 84.2818C140.568 84.3196 140.565 84.3577 140.562 84.3968C140.54 84.5927 140.493 84.7811 140.447 84.9718C140.437 85.0115 140.427 85.0511 140.417 85.0921C140.014 86.7296 139.443 88.3734 138.625 89.8422C138.573 89.9384 138.526 90.0359 138.479 90.1347C138.123 90.8472 137.501 91.3472 136.758 91.6034C136.012 91.8425 135.216 91.7972 134.517 91.4463C133.802 91.0713 133.28 90.4306 133.037 89.665C133.019 89.6006 133.002 89.5362 132.986 89.4715C132.976 89.4322 132.976 89.4322 132.965 89.3918C132.762 88.4981 133.116 87.7387 133.508 86.9606C134.326 85.3387 134.857 83.5542 135.057 81.773C135.059 81.75 135.062 81.727 135.064 81.7033C135.125 81.1439 135.147 80.5876 135.147 80.022C135.147 79.9911 135.147 79.9601 135.147 79.9282C135.146 79.4345 135.133 78.947 135.078 78.4563C135.074 78.4201 135.07 78.3835 135.066 78.346C134.844 76.4054 134.267 74.596 133.408 72.8459C133.068 72.1522 133.068 72.1522 132.987 71.8178C132.976 71.7822 132.976 71.7822 132.966 71.7459C132.786 71.0459 132.991 70.2678 133.34 69.6584C133.752 68.9677 134.399 68.5146 135.173 68.3177C135.201 68.3101 135.228 68.3024 135.257 68.2945C136.15 68.0867 137.065 68.3861 137.764 68.9414L137.762 68.9424ZM134.711 70.1955C134.445 70.533 134.324 70.9205 134.358 71.3487C134.407 71.5902 134.497 71.8049 134.606 72.0237C134.621 72.0545 134.636 72.0852 134.652 72.1171C134.7 72.2149 134.748 72.3127 134.796 72.4105C135.511 73.8637 136.023 75.3825 136.326 76.9731C136.453 76.9474 136.499 76.8994 136.587 76.8031C137.256 76.1156 138.158 75.8156 139.073 75.6281C139.054 75.3847 138.998 75.1593 138.934 74.9218C138.929 74.9016 138.923 74.8815 138.918 74.8606C138.565 73.5574 138.112 72.2605 137.481 71.048C137.444 70.9774 137.409 70.9065 137.373 70.8352C137.18 70.4508 137.18 70.4508 136.92 70.1133C136.904 70.0963 136.888 70.0793 136.871 70.0618C136.55 69.7555 136.153 69.6617 135.722 69.668C135.326 69.6945 134.979 69.8936 134.711 70.1774L134.711 70.1955ZM139.332 77.0394C138.517 77.1156 137.79 77.4988 137.259 78.1238C136.894 78.5894 136.625 79.18 136.603 79.7801C136.602 79.8126 136.601 79.8454 136.6 79.8788C136.583 80.7569 136.902 81.4945 137.499 82.1288C138.12 82.7257 138.904 82.9539 139.75 82.9445C140.543 82.9202 141.258 82.5289 141.798 81.9632C142.11 81.6038 142.329 81.1476 142.441 80.6882C142.449 80.6541 142.449 80.6541 142.458 80.6194C142.503 80.4154 142.515 80.2194 142.513 80.0101C142.513 79.9607 142.513 79.9607 142.513 79.9101C142.5 79.1038 142.166 78.4038 141.598 77.8444C141.575 77.821 141.552 77.7975 141.528 77.7735C141.013 77.2797 140.298 77.0422 139.595 77.0234C139.508 77.0271 139.421 77.0351 139.333 77.042L139.332 77.0394ZM136.354 83.0082C136.309 83.1373 136.274 83.2648 136.245 83.3989C136.236 83.4379 136.228 83.477 136.219 83.5173C136.215 83.5378 136.21 83.5582 136.206 83.5795C135.975 84.6389 135.653 85.667 135.228 86.6639C135.217 86.6897 135.207 86.7155 135.195 86.7421C135.08 87.0117 134.955 87.2764 134.821 87.5358C134.804 87.5686 134.804 87.5686 134.787 87.6024C134.731 87.7124 134.675 87.8218 134.618 87.9305C134.39 88.3743 134.281 88.768 134.416 89.2587C134.544 89.6493 134.797 89.9712 135.166 90.1618C135.565 90.3352 135.93 90.3727 136.349 90.2327C136.87 90.0227 137.123 89.639 137.37 89.1546C137.388 89.1183 137.407 89.0821 137.426 89.0449C137.764 88.3824 138.06 87.7011 138.319 87.0042C138.331 86.9748 138.342 86.9452 138.353 86.9149C138.616 86.2211 138.828 85.5086 139.009 84.7898C139.015 84.7654 139.021 84.7411 139.028 84.7158C139.056 84.6011 139.074 84.4958 139.068 84.3783C139.047 84.3733 139.027 84.3684 139.006 84.3633C138.942 84.3473 138.878 84.3311 138.813 84.3148C138.728 84.2933 138.642 84.2726 138.556 84.2523C138.196 84.1658 137.869 84.0417 137.538 83.8773C137.505 83.8615 137.473 83.8457 137.439 83.8295C137.118 83.6639 136.84 83.4357 136.578 83.192C136.505 83.1257 136.429 83.0642 136.351 83.0032L136.354 83.0082Z" fill="#F5EDE1"/>
<path d="M112.035 94.5053C114.145 95.6303 116.593 96.1553 118.966 96.1522C118.998 96.1522 119.029 96.1521 119.062 96.1521C119.549 96.1513 120.03 96.1401 120.514 96.0837C120.55 96.0797 120.585 96.0756 120.622 96.0715C122.564 95.8474 124.462 95.3027 126.18 94.3683C126.48 94.2077 126.785 94.0758 127.116 93.9902C127.143 93.9831 127.169 93.9761 127.196 93.9688C127.939 93.8013 128.713 93.9871 129.353 94.3719C130.04 94.8344 130.502 95.4813 130.665 96.3001C130.794 97.0782 130.636 97.8564 130.206 98.5189C128.944 100.278 125.585 101.144 123.524 101.55C123.43 101.564 123.337 101.573 123.243 101.581C123.239 101.602 123.235 101.622 123.231 101.643C123.061 102.421 122.629 103.102 122.089 103.674C122.07 103.695 122.051 103.716 122.032 103.737C121.279 104.537 120.102 104.956 119.022 104.999C117.873 105.02 116.721 104.527 115.9 103.743C115.654 103.501 115.444 103.243 115.25 102.956C115.232 102.929 115.214 102.902 115.195 102.874C115.027 102.609 114.887 102.306 114.805 102.002C114.799 101.98 114.793 101.957 114.786 101.934C114.775 101.89 114.765 101.847 114.755 101.803C114.74 101.734 114.74 101.734 114.689 101.642C114.6 101.594 114.536 101.572 114.439 101.549C114.405 101.54 114.371 101.532 114.337 101.523C114.234 101.499 114.131 101.476 114.027 101.453C112.882 101.195 111.764 100.834 110.687 100.368C110.6 100.331 110.513 100.294 110.425 100.258C110.117 100.128 109.816 99.9918 109.52 99.839C109.432 99.7933 109.343 99.7487 109.254 99.7037C109.184 99.6683 109.115 99.633 109.046 99.5977C109.013 99.5814 108.981 99.5652 108.948 99.5483C108.201 99.164 107.618 98.5577 107.355 97.7514C107.339 97.6977 107.339 97.6977 107.323 97.643C107.313 97.6099 107.303 97.5767 107.293 97.5424C107.11 96.8299 107.232 96.0205 107.598 95.3861C108.067 94.6611 108.688 94.1892 109.528 93.9798C110.446 93.7857 111.217 94.0764 112.016 94.5017L112.035 94.5053ZM109.041 95.8709C108.75 96.2303 108.653 96.5991 108.688 97.0522C108.751 97.4272 108.921 97.7741 109.222 98.0116C109.422 98.1532 109.631 98.2713 109.849 98.3835C109.885 98.4021 109.922 98.4207 109.959 98.44C110.621 98.7775 111.301 99.0744 111.998 99.3338C112.027 99.345 112.057 99.3562 112.087 99.3679C112.902 99.6776 113.742 99.9148 114.588 100.115C114.656 99.9648 114.687 99.8082 114.722 99.6491C114.914 98.8272 115.297 98.0428 115.909 97.4522C115.968 97.4025 115.968 97.4025 115.961 97.3347C115.937 97.3294 115.912 97.3241 115.887 97.3186C114.314 96.9748 112.802 96.5154 111.36 95.7811C111.341 95.7712 111.321 95.7613 111.301 95.7512C111.207 95.7031 111.113 95.655 111.02 95.6056C110.327 95.2493 109.596 95.2806 109.037 95.8703L109.041 95.8709ZM126.837 95.6675C126.013 96.0894 125.17 96.4519 124.289 96.7425C124.259 96.7525 124.229 96.7625 124.199 96.7729C123.484 97.0104 122.747 97.1729 122.01 97.3354C121.999 97.4316 121.999 97.4316 122.066 97.4901C122.105 97.5257 122.105 97.5257 122.144 97.5619C122.856 98.2588 123.153 99.1682 123.353 100.118C123.706 100.038 124.052 99.9501 124.402 99.8507C124.425 99.8441 124.448 99.8374 124.472 99.8306C125.693 99.4806 126.876 99.0149 128 98.4305C128.066 98.3968 128.132 98.3633 128.198 98.3302C128.698 98.0758 129.041 97.8115 129.226 97.2552C129.329 96.9021 129.295 96.5396 129.14 96.2083C128.915 95.7958 128.61 95.5552 128.169 95.402C127.679 95.2755 127.258 95.4458 126.83 95.6683L126.837 95.6675ZM117.002 98.3675C116.98 98.3878 116.98 98.3878 116.957 98.4085C116.345 98.9679 116.067 99.7116 116.004 100.524C115.983 101.027 116.114 101.521 116.348 101.962C116.371 102.008 116.371 102.008 116.395 102.056C116.539 102.322 116.729 102.531 116.942 102.743C116.962 102.764 116.983 102.786 117.005 102.808C117.595 103.367 118.391 103.555 119.178 103.536C119.79 103.51 120.377 103.262 120.845 102.87C120.887 102.836 120.887 102.836 120.93 102.801C121.545 102.276 121.851 101.558 121.926 100.761C121.979 100.039 121.747 99.3076 121.298 98.7419C121.252 98.6891 121.205 98.6372 121.158 98.5857C121.136 98.5614 121.114 98.5372 121.092 98.5122C120.577 97.9653 119.849 97.6528 119.103 97.6091C118.323 97.5914 117.589 97.8407 117.005 98.3653L117.002 98.3675Z" fill="#F5EDE1"/>
<path d="M121.745 55.9765C122.444 56.5672 123.05 57.3766 123.237 58.2953C123.278 58.3766 123.336 58.3819 123.42 58.4113C123.484 58.4279 123.548 58.4431 123.613 58.4575C123.651 58.466 123.688 58.4746 123.727 58.4834C123.757 58.49 123.757 58.49 123.787 58.4969C125.273 58.8313 126.691 59.3375 128.065 59.975C128.094 59.9882 128.122 60.0013 128.152 60.0147C129.145 60.4679 130.097 60.9835 130.525 62.0523C130.622 62.3304 130.708 62.6179 130.72 62.9148C130.721 62.946 130.723 62.9773 130.725 63.0092C130.746 63.7904 130.491 64.5186 129.969 65.1029C129.946 65.1286 129.924 65.1542 129.9 65.1804C129.37 65.7461 128.636 66.018 127.871 66.0773C127.094 66.0856 126.457 65.7555 125.779 65.4117C124.246 64.6336 122.595 64.1679 120.877 63.946C120.838 63.9408 120.838 63.9408 120.797 63.9355C120.647 63.9158 120.497 63.897 120.348 63.8836C120.304 63.8795 120.304 63.8795 120.259 63.8754C119.11 63.7842 117.93 63.8135 116.793 63.9773C116.772 63.9803 116.751 63.9833 116.729 63.9865C114.934 64.2465 113.233 64.8521 111.609 65.6771C110.866 66.0552 110.064 66.1865 109.258 65.9346C108.537 65.6943 107.931 65.2127 107.572 64.5377C107.557 64.5126 107.543 64.4874 107.528 64.4615C107.185 63.8365 107.128 63.0302 107.322 62.3489C107.562 61.5739 108.034 60.9802 108.727 60.5676L108.821 60.5101C109.074 60.3583 109.336 60.2264 109.601 60.0976C109.644 60.0773 109.644 60.0773 109.687 60.0564C111.08 59.3907 112.528 58.8845 114.027 58.5189C114.059 58.5109 114.091 58.5029 114.123 58.4947C114.223 58.4728 114.223 58.4728 114.34 58.4584C114.554 58.4344 114.554 58.4344 114.718 58.3094C114.759 58.2169 114.787 58.1272 114.813 58.0294C114.835 57.9609 114.857 57.8925 114.879 57.824C114.89 57.7906 114.9 57.7572 114.911 57.7228C115.092 57.1759 115.454 56.7259 115.847 56.3165C115.872 56.2899 115.896 56.2634 115.921 56.2359C116.14 56.0031 116.393 55.8327 116.658 55.6609C116.691 55.6398 116.723 55.6187 116.757 55.5971C118.306 54.6471 120.316 54.8721 121.721 55.9784L121.745 55.9765ZM118.726 56.4515C117.933 56.5375 117.233 56.9015 116.709 57.5047C116.215 58.1203 115.95 58.9016 116.028 59.6922C116.07 60.0329 116.168 60.3422 116.303 60.661C116.315 60.6895 116.326 60.7182 116.339 60.7476C116.649 61.4319 117.297 61.9382 117.981 62.2101C118.737 62.4835 119.551 62.4107 120.273 62.0773C120.966 61.7429 121.497 61.1647 121.768 60.4429C122.023 59.646 121.991 58.8303 121.633 58.0741C121.283 57.3991 120.758 56.9741 120.081 56.6615C120.052 56.6483 120.023 56.635 119.994 56.6212C119.603 56.4615 119.144 56.4165 118.726 56.4515H118.726ZM114.261 59.9516C114.223 59.9615 114.223 59.9615 114.184 59.9716C114.101 59.9935 114.018 60.0157 113.935 60.0382C113.906 60.0458 113.878 60.0535 113.848 60.0614C112.509 60.4207 111.216 60.9082 109.977 61.5458C109.934 61.5676 109.892 61.5892 109.849 61.6108C109.306 61.8864 108.938 62.1514 108.704 62.7358C108.59 63.1077 108.668 63.5077 108.833 63.8514C109.043 64.2264 109.348 64.4577 109.754 64.5858C110.25 64.7117 110.656 64.5688 111.093 64.3358C112.601 63.5327 114.247 62.992 115.902 62.6733C115.915 62.553 115.915 62.553 115.858 62.4958C115.837 62.4777 115.817 62.4595 115.796 62.4411C115.081 61.7598 114.778 60.8348 114.591 59.891C114.471 59.891 114.363 59.9226 114.247 59.9529L114.261 59.9516ZM123.346 59.8897C123.342 59.9117 123.337 59.9338 123.332 59.9563C123.131 60.8876 122.83 61.7344 122.143 62.4251C122.052 62.5176 122.037 62.5357 122.037 62.6723C122.066 62.6787 122.096 62.6851 122.127 62.6917C123.826 63.0574 125.499 63.5699 127.029 64.4324C127.407 64.6424 127.794 64.6849 128.213 64.5815C128.568 64.4677 128.909 64.2283 129.096 63.8971C129.3 63.4627 129.34 63.0689 129.19 62.6096C128.883 61.797 127.854 61.4627 127.12 61.1314C125.912 60.5939 124.651 60.1533 123.343 59.8908L123.346 59.8897Z" fill="#F5EDE1"/>
<path d="M104.011 68.9111C104.607 69.3955 104.975 70.1236 105.063 70.883C105.128 71.5487 104.966 72.1518 104.648 72.7331C103.733 74.4018 103.183 76.2644 102.943 78.1707C102.938 78.2107 102.933 78.2507 102.927 78.2919C102.863 78.8294 102.851 79.3607 102.851 79.9013C102.851 80.0107 102.851 80.1198 102.85 80.2294C102.849 80.6951 102.873 81.1545 102.919 81.6201C102.923 81.6585 102.927 81.6967 102.93 81.7363C103.104 83.5239 103.639 85.2989 104.448 86.8927C104.459 86.9145 104.47 86.9364 104.481 86.9589C104.536 87.068 104.591 87.1767 104.647 87.2839C104.827 87.6371 104.984 87.9902 105.037 88.3871C105.041 88.4125 105.045 88.438 105.048 88.4643C105.15 89.2143 104.949 89.9549 104.518 90.5737C104.457 90.6531 104.393 90.7281 104.326 90.8024C104.285 90.8484 104.285 90.8484 104.244 90.8949C103.8 91.3731 103.217 91.6325 102.577 91.7387C102.543 91.7449 102.543 91.7449 102.508 91.7511C101.771 91.8655 100.997 91.6349 100.397 91.2074C99.5262 90.5324 99.0735 89.3761 98.6551 88.3823C98.6464 88.3618 98.6378 88.3414 98.6288 88.3201C98.5695 88.1786 98.5114 88.0364 98.454 87.8951C98.4408 87.8623 98.4408 87.8623 98.4273 87.8289C98.2833 87.4695 98.1553 87.107 98.037 86.7382C98.024 86.6982 98.024 86.6982 98.0107 86.6573C97.8887 86.2792 97.775 85.901 97.6735 85.5167C97.6678 85.4948 97.662 85.4729 97.6561 85.4504C97.5999 85.2363 97.5477 85.0223 97.5056 84.8035C97.4992 84.7713 97.4928 84.7388 97.4861 84.7057C97.4749 84.6473 97.4647 84.5888 97.4556 84.5301C97.4417 84.4563 97.4284 84.3976 97.3926 84.3316C97.3142 84.2788 97.234 84.2594 97.1428 84.2379C96.4309 83.9888 95.844 83.6348 95.3007 83.1129C95.2706 83.0851 95.2706 83.0851 95.2398 83.0569C94.4593 82.3194 94.0409 81.1444 94.0003 80.0881C93.9861 78.96 94.4842 77.8443 95.2367 77.0193C95.2966 76.9615 95.3578 76.9074 95.4218 76.8546C95.4936 76.7943 95.5608 76.7303 95.6288 76.6659C96.0722 76.2659 96.603 76.0065 97.1618 75.8065C97.1962 75.7938 97.2305 75.7812 97.2658 75.7681C97.2875 75.7606 97.3092 75.7532 97.3317 75.7456C97.4191 75.6866 97.4207 75.6281 97.4422 75.5262C97.4504 75.4887 97.4585 75.4515 97.4669 75.4128C97.4711 75.3927 97.4752 75.3728 97.4795 75.3522C97.5018 75.2447 97.526 75.1375 97.5501 75.0303C97.555 75.0082 97.5599 74.9862 97.5649 74.9634C97.8768 73.5696 98.3861 72.2165 98.9824 70.9321C99.0078 70.8765 99.0333 70.8208 99.0586 70.7652C99.5175 69.7683 100.058 68.8371 101.138 68.4308C102.14 68.0964 103.177 68.2758 104.007 68.9214L104.011 68.9111ZM101.045 70.1705C100.879 70.3711 100.762 70.5986 100.642 70.8299C100.626 70.8605 100.61 70.8912 100.593 70.9227C99.9156 72.2227 99.4192 73.6009 99.032 75.0165C99.0249 75.0425 99.0177 75.0684 99.0103 75.0953C98.9899 75.169 98.97 75.2431 98.95 75.3172C98.9438 75.3395 98.9376 75.3619 98.9312 75.3847C98.9038 75.4887 98.89 75.5412 98.9248 75.6453C98.9941 75.673 98.9941 75.673 99.0799 75.6887C99.1124 75.6959 99.1449 75.7031 99.178 75.7105C99.2129 75.7179 99.2479 75.7254 99.2838 75.7331C99.9988 75.8965 100.595 76.1518 101.173 76.6143C101.199 76.6343 101.226 76.6543 101.254 76.6749C101.38 76.7696 101.487 76.8581 101.578 76.9906C101.609 76.9803 101.64 76.9699 101.672 76.9593C101.696 76.8856 101.712 76.8168 101.727 76.7409C101.732 76.7184 101.736 76.6959 101.741 76.6724C101.751 76.6237 101.762 76.5749 101.771 76.5262C101.798 76.3968 101.826 76.2677 101.854 76.1387C101.86 76.1127 101.865 76.0868 101.871 76.0599C101.953 75.6881 102.059 75.3224 102.171 74.9599C102.182 74.9262 102.192 74.8924 102.203 74.8577C102.499 73.9015 102.889 72.9577 103.37 72.0796C103.602 71.6545 103.692 71.2577 103.575 70.7827C103.463 70.4108 103.232 70.1108 102.898 69.9045C102.273 69.5701 101.543 69.6576 101.04 70.1761L101.045 70.1705ZM96.2676 78.0144C96.2277 78.0566 96.2277 78.0566 96.2342 78.12H96.1718C95.6598 78.7419 95.3944 79.5263 95.4693 80.3326C95.5567 81.1013 95.9439 81.8138 96.534 82.3139C97.2146 82.8514 98.017 83.0545 98.8787 82.9545C99.6343 82.8357 100.356 82.4076 100.811 81.792C101.289 81.0763 101.486 80.2513 101.327 79.4013C101.221 78.9075 100.983 78.4294 100.64 78.0575C100.616 78.0317 100.593 78.0057 100.569 77.9791C100.044 77.4228 99.3262 77.0978 98.5643 77.0509C97.6839 77.0296 96.8877 77.3947 96.2726 78.0135L96.2676 78.0144ZM101.513 83.1082C101.49 83.1339 101.467 83.1595 101.443 83.1857C100.812 83.8326 99.9194 84.2139 99.0389 84.3514C98.9518 84.3613 98.9518 84.3613 98.8875 84.3973C99.1944 86.0505 99.8616 87.6474 100.605 89.1474C100.618 89.1741 100.631 89.2008 100.645 89.228C100.884 89.7093 101.172 90.0937 101.697 90.2718C102.118 90.3906 102.512 90.3396 102.899 90.1334C103.23 89.9237 103.464 89.6334 103.58 89.2583C103.606 89.1193 103.614 88.9852 103.615 88.8427C103.615 88.8182 103.615 88.7937 103.616 88.7687C103.612 88.494 103.51 88.2624 103.392 88.0186C103.381 87.9959 103.371 87.973 103.359 87.9496C103.286 87.7952 103.21 87.6421 103.133 87.4902C103.091 87.4068 103.049 87.3236 103.008 87.2402C102.998 87.2206 102.988 87.2011 102.978 87.1808C102.335 85.8839 101.945 84.4683 101.667 83.0557C101.571 83.0451 101.571 83.0451 101.514 83.1111L101.513 83.1082Z" fill="#F5EDE1"/>
</svg>
